<?xml version="1.0" encoding="UTF-8" standalone="no"?>
<!-- Created with Inkscape (http://www.inkscape.org/) -->

<svg
   width="180"
   height="180"
   viewBox="0 0 180 180"
   version="1.1"
   id="svg1"
   xml:space="preserve"
   inkscape:version="1.3.2 (091e20ef0f, 2023-11-25, custom)"
   sodipodi:docname="icon.svg"
   xmlns:inkscape="http://www.inkscape.org/namespaces/inkscape"
   xmlns:sodipodi="http://sodipodi.sourceforge.net/DTD/sodipodi-0.dtd"
   xmlns="http://www.w3.org/2000/svg"
   xmlns:svg="http://www.w3.org/2000/svg"><sodipodi:namedview
     id="namedview1"
     pagecolor="#ffffff"
     bordercolor="#000000"
     borderopacity="0.25"
     inkscape:showpageshadow="2"
     inkscape:pageopacity="0.0"
     inkscape:pagecheckerboard="0"
     inkscape:deskcolor="#d1d1d1"
     inkscape:document-units="px"
     inkscape:zoom="5.2666667"
     inkscape:cx="90"
     inkscape:cy="89.905063"
     inkscape:window-width="1493"
     inkscape:window-height="1289"
     inkscape:window-x="26"
     inkscape:window-y="23"
     inkscape:window-maximized="0"
     inkscape:current-layer="layer1" /><defs
     id="defs1" /><g
     inkscape:label="Layer 1"
     inkscape:groupmode="layer"
     id="layer1"><g
       style="color:#000000;fill:#d4aa00;stroke-width:1.5"
       id="g2"
       transform="matrix(4.0430464,0,0,4.0430464,83.775942,2.6659617)"><path
         d="M 8.58737,8.23597 11.1849,3.00376 c 0.3334,-0.67168 1.2968,-0.67168 1.6302,0 l 2.5975,5.23221 5.8089,0.8442 c 0.7453,0.10831 1.0423,1.01923 0.5028,1.54173 l -4.2026,4.0699 0.9918,5.7496 c 0.1274,0.7384 -0.6521,1.3014 -1.319,0.9527 L 12,18.678 6.80547,21.3941 C 6.1386,21.7428 5.35909,21.1798 5.48645,20.4414 l 0.9918,-5.7496 -4.2025,-4.0699 C 1.73617,10.0994 2.03322,9.18848 2.77852,9.08017 Z"
         stroke="#000000"
         stroke-width="1.5"
         stroke-linecap="round"
         stroke-linejoin="round"
         id="path1-5"
         style="fill:#d4aa00" /></g><g
       style="color:#000000;fill:#0055d4;stroke-width:1.5;fill-opacity:1"
       id="g1"
       transform="matrix(5.6163355,0,0,5.6163355,21.589632,41.025033)"><path
         d="m 5,12 v 6 c 0,0 0,3 7,3 7,0 7,-3 7,-3 v -6"
         stroke="#000000"
         stroke-width="1.5"
         id="path1"
         style="fill:#0055d4;fill-opacity:1" /><path
         d="m 5,6 v 6 c 0,0 0,3 7,3 7,0 7,-3 7,-3 V 6"
         stroke="#000000"
         stroke-width="1.5"
         id="path2"
         style="fill:#0055d4;fill-opacity:1" /><path
         d="m 12,3 c 7,0 7,3 7,3 0,0 0,3 -7,3 C 5,9 5,6 5,6 5,6 5,3 12,3 Z"
         stroke="#000000"
         stroke-width="1.5"
         id="path3"
         style="fill:#0055d4;fill-opacity:1" /></g><g
       style="color:#000000;fill:#e9ddaf;stroke-width:1.5"
       id="g3"
       transform="matrix(4.2852134,0,0,4.2852134,0.73635914,-0.39046978)"><path
         d="M 3,11.5066 C 3,16.7497 7.25034,21 12.4934,21 16.2209,21 19.4466,18.8518 21,15.7259 12.4934,15.7259 8.27411,11.5066 8.27411,3 5.14821,4.55344 3,7.77915 3,11.5066 Z"
         stroke="#000000"
         stroke-width="1.5"
         stroke-linecap="round"
         stroke-linejoin="round"
         id="path1-2"
         style="fill:#e9ddaf" /></g></g></svg>
